<?xml version="1.0" encoding="UTF-8"?>
<svg id="Layer_1" data-name="Layer 1" xmlns="http://www.w3.org/2000/svg" xmlns:xlink="http://www.w3.org/1999/xlink" viewBox="0 0 4000 4000">
  <defs>
    <style>
      .cls-1, .cls-2 {
        fill: none;
      }

      .cls-3 {
        fill: url(#linear-gradient);
      }

      .cls-4 {
        clip-path: url(#clippath);
      }

      .cls-5 {
        mask: url(#mask);
      }

      .cls-6 {
        letter-spacing: -.03em;
      }

      .cls-7 {
        letter-spacing: -.02em;
      }

      .cls-2 {
        clip-rule: evenodd;
      }

      .cls-8 {
        clip-path: url(#clippath-1);
      }

      .cls-9 {
        clip-path: url(#clippath-3);
      }

      .cls-10 {
        clip-path: url(#clippath-2);
      }

      .cls-11 {
        fill: #870000;
      }

      .cls-11, .cls-12, .cls-13 {
        opacity: .3;
      }

      .cls-11, .cls-12, .cls-13, .cls-14 {
        fill-rule: evenodd;
      }

      .cls-12 {
        fill: #01052d;
      }

      .cls-13 {
        fill: #300c50;
      }

      .cls-15 {
        fill: url(#linear-gradient-8);
      }

      .cls-16 {
        fill: url(#linear-gradient-9);
      }

      .cls-17 {
        fill: url(#linear-gradient-3);
      }

      .cls-18 {
        fill: url(#linear-gradient-4);
      }

      .cls-19 {
        fill: url(#linear-gradient-2);
      }

      .cls-20 {
        fill: url(#linear-gradient-6);
      }

      .cls-21 {
        fill: url(#linear-gradient-7);
      }

      .cls-22 {
        fill: url(#linear-gradient-5);
      }

      .cls-14 {
        fill: #fff;
      }

      .cls-23 {
        fill: url(#linear-gradient-12);
      }

      .cls-24 {
        fill: url(#linear-gradient-10);
      }

      .cls-25 {
        fill: url(#linear-gradient-11);
      }

      .cls-26 {
        font-family: AvenirNext-Heavy, 'Avenir Next';
        font-size: 620px;
      }

      .cls-27 {
        mask: url(#mask-3);
      }

      .cls-28 {
        mask: url(#mask-2);
      }

      .cls-29 {
        mask: url(#mask-5);
      }

      .cls-30 {
        mask: url(#mask-4);
      }

      .cls-31 {
        mask: url(#mask-1);
      }

      .cls-32 {
        mask: url(#mask-7);
      }

      .cls-33 {
        mask: url(#mask-6);
      }
    </style>
    <clipPath id="clippath">
      <path class="cls-2" d="M2313.37,1416.15c273.92-234.76-82.44-486.95-297.07-579.13-227.17-97.55-531.94-38.23-741.57,177.58-180.73,183.65-292.23,435.63-292.23,713.64s116.3,540.7,303.86,725.27c-105.67-213.91-109.18-415.12-11.62-642.29,85.74-199.68,226.46-255.62,380.44-359.92,81.07-100.81,205.4-165.34,344.82-165.34,122.46,0,233.28,49.78,313.38,130.2"/>
    </clipPath>
    <linearGradient id="linear-gradient" x1="2271.61" y1="1152.47" x2="788.63" y2="2505.37" gradientUnits="userSpaceOnUse">
      <stop offset="0" stop-color="#009c41"/>
      <stop offset="1" stop-color="#ff0"/>
    </linearGradient>
    <clipPath id="clippath-1">
      <path class="cls-2" d="M1679.02,1423.96c-227.38,12.35-430.31,152.38-521.27,364.21-97.56,227.18-46.58,490.89,128.61,665.34,183.65,180.73,435.63,292.23,713.64,292.23s540.7-116.3,725.27-303.86c-287.94,52.17-415.12-11.34-642.29-108.89-180.01-77.3-148.22-87.9-281.97-209.67-144.31-72.83-243.3-222.39-243.3-395.07,0-117.89,46.13-224.99,121.31-304.28"/>
    </clipPath>
    <linearGradient id="linear-gradient-2" x1="1289.93" y1="1408.19" x2="2564.64" y2="2839.1" gradientUnits="userSpaceOnUse">
      <stop offset="0" stop-color="blue"/>
      <stop offset="1" stop-color="aqua"/>
    </linearGradient>
    <clipPath id="clippath-2">
      <path class="cls-2" d="M1695.72,2049.21c12.34,227.38,152.38,430.32,364.22,521.29,227.17,97.55,490.88,46.57,665.33-128.62,180.73-183.64,292.23-435.62,292.23-713.64s-116.3-540.7-303.86-725.27c43.24,247.76,32.64,415.13-64.91,642.3-76.54,178.26-125.36,144.87-250.71,276.03-71.7,147.53-222.97,249.23-398.02,249.23-117.89,0-224.99-46.13-304.28-121.32"/>
    </clipPath>
    <linearGradient id="linear-gradient-3" x1="1057.19" y1="2339.21" x2="3281.33" y2="1477.06" gradientUnits="userSpaceOnUse">
      <stop offset="0" stop-color="blue"/>
      <stop offset="1" stop-color="#f0f"/>
    </linearGradient>
    <clipPath id="clippath-3">
      <path class="cls-2" d="M2320.97,2032.52c227.38-12.34,430.32-152.37,521.28-364.21,97.56-227.18,46.58-490.88-128.61-665.34-183.65-180.72-435.63-292.23-713.64-292.23s-540.7,116.3-725.27,303.85c174.45-175.19,438.16-226.17,665.33-128.62,211.84,90.97,351.88,293.91,364.22,521.28,84.99,80.6,138.01,194.59,138.01,320.97,0,117.88-46.13,224.99-121.32,304.28"/>
    </clipPath>
    <linearGradient id="linear-gradient-4" x1="2643.06" y1="2219.94" x2="1597.11" y2="563.91" gradientUnits="userSpaceOnUse">
      <stop offset="0" stop-color="red"/>
      <stop offset="1" stop-color="#ff0"/>
    </linearGradient>
    <linearGradient id="linear-gradient-5" x1="3956.36" y1="421.04" x2="1678.84" y2="2450.96" gradientTransform="translate(116.27 -92.18)" gradientUnits="userSpaceOnUse">
      <stop offset="0" stop-color="#fff"/>
      <stop offset="1" stop-color="#000"/>
    </linearGradient>
    <mask id="mask" x="1938.42" y="1104.59" width="1007.22" height="1355.19" maskUnits="userSpaceOnUse">
      <rect class="cls-22" x="1938.42" y="1104.59" width="1007.22" height="1355.19"/>
    </mask>
    <linearGradient id="linear-gradient-6" x1="2983.27" y1="2987.18" x2="1200.46" y2="1805.52" gradientTransform="translate(75.74 -79.23)" xlink:href="#linear-gradient-5"/>
    <mask id="mask-1" x="1268.46" y="1666.67" width="1355.19" height="1007.22" maskUnits="userSpaceOnUse">
      <rect class="cls-20" x="1268.46" y="1666.67" width="1355.19" height="1007.22"/>
    </mask>
    <linearGradient id="linear-gradient-7" x1="829.79" y1="2816.8" x2="1835.41" y2="1239.29" gradientTransform="translate(62.79 -98.71)" xlink:href="#linear-gradient-5"/>
    <mask id="mask-2" x="1054.35" y="996.71" width="1007.22" height="1355.19" maskUnits="userSpaceOnUse">
      <rect class="cls-21" x="1054.35" y="996.71" width="1007.22" height="1355.19"/>
    </mask>
    <linearGradient id="linear-gradient-8" x1="690.03" y1="534.8" x2="3129.69" y2="2217.77" gradientTransform="translate(82.27 -132.72)" xlink:href="#linear-gradient-5"/>
    <mask id="mask-3" x="1376.34" y="782.6" width="1355.19" height="1007.23" maskUnits="userSpaceOnUse">
      <rect class="cls-15" x="1376.34" y="782.6" width="1355.19" height="1007.23"/>
    </mask>
    <linearGradient id="linear-gradient-9" x1="712.6" y1="2742.09" x2="1718.22" y2="1164.58" gradientTransform="translate(62.79 -98.71)" xlink:href="#linear-gradient-5"/>
    <mask id="mask-4" x="1054.35" y="1073.12" width="628.88" height="1278.79" maskUnits="userSpaceOnUse">
      <rect class="cls-16" x="1054.35" y="1073.12" width="628.88" height="1278.79"/>
    </mask>
    <linearGradient id="linear-gradient-10" x1="2834.84" y1="3032.06" x2="1257.15" y2="2026.44" gradientTransform="translate(80.36 -79.23)" xlink:href="#linear-gradient-5"/>
    <mask id="mask-5" x="1344.87" y="2045.01" width="1278.79" height="628.87" maskUnits="userSpaceOnUse">
      <rect class="cls-24" x="1344.87" y="2045.01" width="1278.79" height="628.87"/>
    </mask>
    <linearGradient id="linear-gradient-11" x1="3085.51" y1="909.86" x2="2079.72" y2="2487.55" gradientTransform="translate(139.16 -96.81)" xlink:href="#linear-gradient-5"/>
    <mask id="mask-6" x="2316.77" y="1104.58" width="628.88" height="1278.79" maskUnits="userSpaceOnUse">
      <rect class="cls-25" x="2316.77" y="1104.58" width="628.88" height="1278.79"/>
    </mask>
    <linearGradient id="linear-gradient-12" x1="1002.61" y1="659.15" x2="2580.14" y2="1664.94" gradientTransform="translate(82.27 -155.61)" xlink:href="#linear-gradient-5"/>
    <mask id="mask-7" x="1376.34" y="782.6" width="1278.79" height="628.88" maskUnits="userSpaceOnUse">
      <rect class="cls-23" x="1376.34" y="782.6" width="1278.79" height="628.88"/>
    </mask>
  </defs>
  <g class="cls-4">
    <rect class="cls-3" x="982.5" y="739.48" width="1604.79" height="1714.03"/>
  </g>
  <g class="cls-8">
    <rect class="cls-19" x="1060.18" y="1423.96" width="1665.08" height="1321.77"/>
  </g>
  <g class="cls-10">
    <rect class="cls-17" x="1695.72" y="1002.97" width="1321.78" height="1665.08"/>
  </g>
  <g class="cls-9">
    <rect class="cls-18" x="1274.73" y="710.75" width="1665.08" height="1321.77"/>
  </g>
  <path class="cls-12" d="M1679.02,1423.96c-227.38,12.35-430.31,152.38-521.27,364.21-93.49,217.7-50.58,468.94,107.33,643.04-99.82-149.25-111.4-339.29-33.56-498.3,7.79-15.91,16.47-31.52,26.05-46.73,70.5-111.98,180.66-189.12,304.43-219.5,13.01-93.41,55.17-177.48,117.03-242.72"/>
  <path class="cls-12" d="M1842.06,985.81c111.98,70.5,189.12,180.66,219.5,304.43,93.42,13.01,177.48,55.18,242.72,117.03-12.34-227.37-152.38-430.31-364.22-521.28-217.7-93.49-468.94-50.58-643.04,107.34,164.19-109.81,377.73-112.85,545.04-7.51"/>
  <path class="cls-11" d="M2621.41,1702.4c-54.54,41.37-117.01,71.12-183.4,87.41-13.02,93.41-55.18,177.48-117.04,242.71,227.38-12.34,430.32-152.37,521.28-364.21,93.49-217.7,50.58-468.94-107.33-643.04,109.81,164.19,112.84,377.72,7.51,545.03-32.68,51.91-73.89,96.34-121.02,132.09"/>
  <path class="cls-13" d="M1985.07,2286.58c-20.63-37.86-36.33-78.32-46.65-120.33-93.41-13.01-177.48-55.18-242.71-117.03,12.34,227.38,152.38,430.32,364.22,521.29,217.7,93.48,468.94,50.57,643.04-107.34-164.19,109.81-377.73,112.84-545.04,7.51-73.96-46.56-132.74-110.43-172.87-184.09"/>
  <g class="cls-5">
    <path class="cls-14" d="M2842.25,1668.31c-90.97,211.84-293.9,351.88-521.28,364.21-80.6,84.99-194.59,138.01-320.97,138.01-20.9,0-41.45-1.49-61.58-4.29,10.32,42.02,26.02,82.47,46.65,120.33,37.09,68.08,90.09,127.79,156.29,173.2,61.37-4.61,121.28-15.64,178.93-32.51,249.77-73.06,457.34-255.74,559.27-502.1,112.63-272.19,79.07-580.49-83.89-820.58,106.65,166.14,126.66,377.24,46.57,563.72"/>
  </g>
  <g class="cls-31">
    <path class="cls-14" d="M2059.93,2570.5c-211.84-90.97-351.88-293.91-364.22-521.29-84.99-80.6-138.01-194.59-138.01-320.97,0-20.9,1.48-41.45,4.28-61.58-42.02,10.31-82.47,26.01-120.33,46.65-68.07,37.09-127.78,90.09-173.2,156.29,4.61,61.37,15.64,121.28,32.5,178.93,73.06,249.77,255.74,457.34,502.11,559.28,272.19,112.62,580.48,79.07,820.58-83.88-166.14,106.64-377.24,126.65-563.72,46.57"/>
  </g>
  <g class="cls-28">
    <path class="cls-14" d="M1157.74,1788.17c90.97-211.83,293.9-351.86,521.27-364.21,80.6-84.99,194.6-138.01,320.98-138.01,20.9,0,41.45,1.48,61.58,4.28-10.32-42.02-26.02-82.47-46.65-120.33-37.09-68.07-90.09-127.78-156.29-173.2-61.37,4.62-121.28,15.64-178.93,32.5-249.77,73.06-457.34,255.74-559.27,502.1-112.63,272.2-79.08,580.49,83.89,820.59-106.65-166.14-126.66-377.24-46.57-563.73"/>
  </g>
  <g class="cls-27">
    <path class="cls-14" d="M1940.06,885.98c211.84,90.97,351.88,293.91,364.22,521.28,84.99,80.6,138.01,194.59,138.01,320.97,0,20.9-1.48,41.45-4.28,61.58,42.02-10.31,82.47-26.02,120.33-46.65,68.07-37.09,127.78-90.1,173.2-156.3-4.61-61.37-15.64-121.28-32.5-178.93-73.06-249.76-255.74-457.34-502.11-559.27-272.19-112.63-580.48-79.07-820.58,83.88,166.14-106.64,377.24-126.65,563.72-46.57"/>
  </g>
  <g class="cls-30">
    <path class="cls-14" d="M1157.74,1788.17c90.97-211.83,293.9-351.86,521.27-364.21,1.39-1.47,2.81-2.92,4.21-4.37-52.49-2.52-115.02,1.62-177.55,22.46-156.1,52.03-430.03,230.41-312.2,0,115.74-226.32,359.91-364.11,368.56-368.95-196.5,89.96-356.17,251.7-441.61,458.2-112.63,272.2-79.08,580.49,83.89,820.59-106.65-166.14-126.66-377.24-46.57-563.73"/>
  </g>
  <path class="cls-12" d="M1751.71,940.91c-208.53,63.04-466.94,211.15-616.39,556.48,106.43-229.18,306.22-398.52,544.39-468.18,57.65-16.86,117.56-27.88,178.93-32.5,0,0,119.55-16.72,252.25,0-42.03-38.76-89.93-71.86-142.75-97.81-57.32,5.16-132.87,16.76-216.43,42.02"/>
  <g class="cls-29">
    <path class="cls-14" d="M2059.93,2570.5c-211.83-90.97-351.86-293.9-364.21-521.28-1.47-1.39-2.92-2.8-4.37-4.21-2.52,52.49,1.62,115.01,22.46,177.55,52.03,156.1,230.41,430.04,0,312.2-226.31-115.74-364.11-359.91-368.94-368.56,89.97,196.51,251.7,356.17,458.2,441.61,272.19,112.63,580.49,79.08,820.58-83.88-166.14,106.65-377.24,126.66-563.72,46.57"/>
  </g>
  <path class="cls-12" d="M1212.67,1976.53c63.04,208.52,211.15,466.94,556.49,616.39-229.18-106.42-398.52-306.22-468.19-544.38-16.86-57.65-27.88-117.57-32.5-178.93,0,0-16.72-119.55,0-252.26-38.76,42.03-71.86,89.93-97.81,142.75,5.16,57.32,16.76,132.87,42.02,216.43"/>
  <g class="cls-33">
    <path class="cls-14" d="M2842.25,1668.31c-90.97,211.83-293.9,351.86-521.27,364.21-1.39,1.47-2.81,2.92-4.21,4.37,52.49,2.52,115.02-1.62,177.55-22.46,156.1-52.04,430.03-230.41,312.2,0-115.74,226.31-359.91,364.11-368.56,368.94,196.5-89.97,356.17-251.71,441.61-458.2,112.63-272.19,79.07-580.49-83.89-820.58,106.65,166.13,126.66,377.24,46.57,563.72"/>
  </g>
  <path class="cls-12" d="M2248.29,2515.57c208.53-63.04,466.94-211.15,616.39-556.48-106.43,229.18-306.22,398.52-544.39,468.18-57.65,16.87-117.56,27.88-178.93,32.51,0,0-119.55,16.72-252.25,0,42.03,38.76,89.93,71.86,142.75,97.81,57.32-5.15,132.87-16.75,216.43-42.02"/>
  <g class="cls-32">
    <path class="cls-14" d="M1940.06,885.98c211.83,90.97,351.86,293.9,364.21,521.28,1.47,1.39,2.92,2.8,4.37,4.21,2.52-52.5-1.62-115.02-22.46-177.55-52.03-156.1-230.41-430.03,0-312.2,226.31,115.73,364.11,359.91,368.95,368.56-89.97-196.5-251.7-356.17-458.2-441.6-272.19-112.63-580.49-79.07-820.58,83.88,166.14-106.64,377.24-126.65,563.72-46.57"/>
  </g>
  <path class="cls-11" d="M2787.33,1479.95c-63.04-208.52-211.15-466.94-556.49-616.39,229.18,106.42,398.52,306.22,468.19,544.39,16.86,57.65,27.88,117.56,32.5,178.93,0,0,16.72,119.56,0,252.26,38.76-42.03,71.86-89.93,97.81-142.75-5.16-57.32-16.76-132.87-42.02-216.43"/>
  <rect class="cls-1" width="4000" height="4000"/>
  <text class="cls-26" transform="translate(733.67 3393.18)"><tspan x="0" y="0">P</tspan><tspan class="cls-6" x="424.07" y="0">O</tspan><tspan x="935.57" y="0">TRE</tspan><tspan class="cls-7" x="2124.1" y="0">T</tspan></text>
</svg>